<svg id="visual" viewBox="0 0 1400 400" width="1400" height="400" xmlns="http://www.w3.org/2000/svg" xmlns:xlink="http://www.w3.org/1999/xlink" version="1.1"><path d="M0 266L23.3 273.2C46.7 280.3 93.3 294.7 140 301.3C186.7 308 233.3 307 280 304.5C326.7 302 373.3 298 420 295.7C466.7 293.3 513.3 292.7 560 290.3C606.7 288 653.3 284 700 279.8C746.7 275.7 793.3 271.3 840 270C886.7 268.7 933.3 270.3 980 271C1026.7 271.7 1073.3 271.3 1120 277.5C1166.7 283.7 1213.3 296.3 1260 303.3C1306.7 310.3 1353.3 311.7 1376.7 312.3L1400 313L1400 401L1376.7 401C1353.3 401 1306.7 401 1260 401C1213.3 401 1166.7 401 1120 401C1073.3 401 1026.7 401 980 401C933.3 401 886.7 401 840 401C793.3 401 746.7 401 700 401C653.3 401 606.7 401 560 401C513.3 401 466.7 401 420 401C373.3 401 326.7 401 280 401C233.3 401 186.7 401 140 401C93.3 401 46.7 401 23.3 401L0 401Z" fill="#fa7268"></path><path d="M0 311L23.3 310.2C46.7 309.3 93.3 307.7 140 303.2C186.7 298.7 233.3 291.3 280 290.8C326.7 290.3 373.3 296.7 420 299.5C466.7 302.3 513.3 301.7 560 300.7C606.7 299.7 653.3 298.3 700 295.2C746.7 292 793.3 287 840 293.3C886.7 299.7 933.3 317.3 980 317.3C1026.7 317.3 1073.3 299.7 1120 296.5C1166.7 293.3 1213.3 304.7 1260 310.7C1306.7 316.7 1353.3 317.3 1376.7 317.7L1400 318L1400 401L1376.7 401C1353.3 401 1306.7 401 1260 401C1213.3 401 1166.7 401 1120 401C1073.3 401 1026.7 401 980 401C933.3 401 886.7 401 840 401C793.3 401 746.7 401 700 401C653.3 401 606.7 401 560 401C513.3 401 466.7 401 420 401C373.3 401 326.7 401 280 401C233.3 401 186.7 401 140 401C93.3 401 46.7 401 23.3 401L0 401Z" fill="#f16367"></path><path d="M0 319L23.3 317.8C46.7 316.7 93.3 314.3 140 312.3C186.7 310.3 233.3 308.7 280 307.5C326.7 306.3 373.3 305.7 420 310.7C466.7 315.7 513.3 326.3 560 328.3C606.7 330.3 653.3 323.7 700 324.2C746.7 324.7 793.3 332.3 840 330.3C886.7 328.3 933.3 316.7 980 310.5C1026.7 304.3 1073.3 303.7 1120 306C1166.7 308.3 1213.3 313.7 1260 317.2C1306.7 320.7 1353.3 322.3 1376.7 323.2L1400 324L1400 401L1376.7 401C1353.3 401 1306.7 401 1260 401C1213.3 401 1166.7 401 1120 401C1073.3 401 1026.7 401 980 401C933.3 401 886.7 401 840 401C793.3 401 746.7 401 700 401C653.3 401 606.7 401 560 401C513.3 401 466.7 401 420 401C373.3 401 326.7 401 280 401C233.3 401 186.7 401 140 401C93.3 401 46.7 401 23.3 401L0 401Z" fill="#e85467"></path><path d="M0 341L23.3 340.5C46.7 340 93.3 339 140 339.2C186.7 339.3 233.3 340.7 280 343.5C326.7 346.3 373.3 350.7 420 352.3C466.7 354 513.3 353 560 347.8C606.7 342.7 653.3 333.3 700 329.8C746.7 326.3 793.3 328.7 840 331.2C886.7 333.7 933.3 336.3 980 338.8C1026.7 341.3 1073.3 343.7 1120 345.2C1166.7 346.7 1213.3 347.3 1260 346.5C1306.7 345.7 1353.3 343.3 1376.7 342.2L1400 341L1400 401L1376.7 401C1353.3 401 1306.7 401 1260 401C1213.3 401 1166.7 401 1120 401C1073.3 401 1026.7 401 980 401C933.3 401 886.7 401 840 401C793.3 401 746.7 401 700 401C653.3 401 606.7 401 560 401C513.3 401 466.7 401 420 401C373.3 401 326.7 401 280 401C233.3 401 186.7 401 140 401C93.3 401 46.7 401 23.3 401L0 401Z" fill="#de4467"></path><path d="M0 361L23.3 359.2C46.7 357.3 93.3 353.7 140 353C186.7 352.3 233.3 354.7 280 357.5C326.7 360.3 373.3 363.7 420 361.3C466.7 359 513.3 351 560 349.3C606.7 347.7 653.3 352.3 700 356C746.7 359.7 793.3 362.3 840 361.5C886.7 360.7 933.3 356.3 980 354.3C1026.7 352.3 1073.3 352.7 1120 355.2C1166.7 357.7 1213.3 362.3 1260 363.5C1306.7 364.7 1353.3 362.3 1376.7 361.2L1400 360L1400 401L1376.7 401C1353.3 401 1306.7 401 1260 401C1213.3 401 1166.7 401 1120 401C1073.3 401 1026.7 401 980 401C933.3 401 886.7 401 840 401C793.3 401 746.7 401 700 401C653.3 401 606.7 401 560 401C513.3 401 466.7 401 420 401C373.3 401 326.7 401 280 401C233.3 401 186.7 401 140 401C93.3 401 46.7 401 23.3 401L0 401Z" fill="#d23467"></path><path d="M0 367L23.3 366.3C46.7 365.7 93.3 364.3 140 366.2C186.7 368 233.3 373 280 376.5C326.7 380 373.3 382 420 381.8C466.7 381.7 513.3 379.3 560 378C606.7 376.7 653.3 376.3 700 376.7C746.7 377 793.3 378 840 380.2C886.7 382.3 933.3 385.7 980 384.7C1026.7 383.7 1073.3 378.3 1120 374.3C1166.7 370.3 1213.3 367.7 1260 367.7C1306.7 367.7 1353.3 370.3 1376.7 371.7L1400 373L1400 401L1376.7 401C1353.3 401 1306.7 401 1260 401C1213.3 401 1166.7 401 1120 401C1073.3 401 1026.7 401 980 401C933.3 401 886.7 401 840 401C793.3 401 746.7 401 700 401C653.3 401 606.7 401 560 401C513.3 401 466.7 401 420 401C373.3 401 326.7 401 280 401C233.3 401 186.7 401 140 401C93.3 401 46.7 401 23.3 401L0 401Z" fill="#c62368"></path></svg>